<?xml version="1.0" encoding="iso-8859-1"?>
<!-- Generator: Adobe Illustrator 19.0.0, SVG Export Plug-In . SVG Version: 6.00 Build 0)  -->
<svg version="1.1" id="Layer_1" xmlns="http://www.w3.org/2000/svg" xmlns:xlink="http://www.w3.org/1999/xlink" x="0px" y="0px"
	 viewBox="0 0 512.001 512.001" style="enable-background:new 0 0 512.001 512.001;" xml:space="preserve">
<g>
	<path style="fill:#EEBF00;" d="M226.716,185.146c-3.308,0-6.377-2.124-7.426-5.447c-0.412-1.255-10.945-31.918-55.359-46.907
		c-47.912-16.167-70.235-51.221-61.245-96.171c4.774-23.865,24.927-35.551,42.783-36.546c19.917-1.106,36.542,9.99,42.375,28.279
		c4.403,13.804,0.808,23.239-2.983,28.722c-11.089,16.042-36.005,17.793-38.81,17.938c-4.309,0.25-7.962-3.075-8.187-7.371
		c-0.224-4.295,3.072-7.959,7.366-8.186c5.534-0.316,21.11-2.952,26.831-11.265c2.646-3.846,2.954-8.787,0.939-15.105
		c-4.376-13.722-16.644-18.012-26.665-17.458c-11.861,0.662-25.235,8.353-28.373,24.045c-5.227,26.137-0.631,60.948,50.949,78.353
		c52.277,17.642,64.73,55.38,65.234,56.978c1.295,4.102-0.98,8.478-5.083,9.774C228.283,185.03,227.493,185.146,226.716,185.146z"/>
	<path style="fill:#EEBF00;" d="M285.285,185.146c-0.777,0-1.567-0.116-2.347-0.364c-4.103-1.295-6.379-5.672-5.084-9.774
		c0.505-1.598,12.958-39.336,65.234-56.978c51.581-17.406,56.178-52.216,50.95-78.353c-3.138-15.693-16.511-23.385-28.372-24.045
		c-10.042-0.572-22.289,3.736-26.665,17.457c-2.015,6.319-1.709,11.26,0.938,15.107c5.724,8.317,21.316,10.951,26.841,11.264
		c4.289,0.243,7.58,3.914,7.345,8.202c-0.235,4.289-3.869,7.603-8.177,7.355c-2.803-0.146-27.719-1.897-38.808-17.938
		c-3.79-5.483-7.385-14.918-2.982-28.722c5.832-18.287,22.467-29.382,42.374-28.279c17.856,0.995,38.011,12.682,42.783,36.546
		c8.989,44.95-13.334,80.003-61.245,96.171c-44.866,15.14-55.259,46.591-55.359,46.907
		C291.663,183.023,288.593,185.146,285.285,185.146z"/>
	<path style="fill:#EEBF00;" d="M281.113,188.275l56.718-179.64H171.616l56.717,179.64c-25.937,10.457-44.251,35.845-44.251,65.526
		h141.282C325.364,224.12,307.05,198.732,281.113,188.275z"/>
</g>
<g>
	<path style="opacity:0.11;fill:#664400;enable-background:new    ;" d="M281.113,188.275l56.718-179.64h-31.118l-56.717,179.64
		c25.937,10.457,44.251,35.845,44.251,65.526h31.118C325.364,224.12,307.05,198.732,281.113,188.275z"/>
	<path style="fill:#664400;" d="M375.108,285.818H134.338c-10.401,0-18.911-8.509-18.911-18.911l0,0
		c0-10.401,8.51-18.911,18.911-18.911h240.771c10.401,0,18.911,8.51,18.911,18.911l0,0
		C394.02,277.308,385.509,285.818,375.108,285.818z"/>
</g>
<path style="fill:#56361D;" d="M385.523,251.107c0.504,1.698,0.786,3.489,0.786,5.345c0,10.401-8.51,18.911-18.911,18.911h-240.77
	c-3.811,0-7.363-1.151-10.341-3.111c2.321,7.818,9.58,13.567,18.125,13.567h240.771c10.401,0,18.911-8.51,18.911-18.911l0,0
	C394.094,260.317,390.671,254.495,385.523,251.107z"/>
<path style="fill:#664400;" d="M375.108,511.943H134.338c-10.401,0-18.911-8.51-18.911-18.911l0,0
	c0-10.401,8.51-18.911,18.911-18.911h240.771c10.401,0,18.911,8.509,18.911,18.911l0,0
	C394.02,503.433,385.509,511.943,375.108,511.943z"/>
<rect x="152.659" y="285.822" style="fill:#266659;" width="200.975" height="188.304"/>
<g style="opacity:0.08;">
	<polygon style="fill:#664400;" points="337.831,8.635 171.616,8.635 180.422,36.526 329.024,36.526 	"/>
</g>
<rect x="187.807" y="348.327" style="fill:#EEBF00;" width="130.774" height="56.91"/>
<g>
	<path style="fill:#1F544A;" d="M187.802,332.768c-4.302,0-7.79-3.487-7.79-7.79v-13.837c0-4.303,3.488-7.79,7.79-7.79
		s7.79,3.487,7.79,7.79v13.837C195.592,329.282,192.105,332.768,187.802,332.768z"/>
	<path style="fill:#1F544A;" d="M231.395,332.768c-4.302,0-7.79-3.487-7.79-7.79v-13.837c0-4.303,3.488-7.79,7.79-7.79
		c4.302,0,7.79,3.487,7.79,7.79v13.837C239.185,329.282,235.697,332.768,231.395,332.768z"/>
	<path style="fill:#1F544A;" d="M274.986,332.768c-4.303,0-7.79-3.487-7.79-7.79v-13.837c0-4.303,3.487-7.79,7.79-7.79
		c4.303,0,7.79,3.487,7.79,7.79v13.837C282.776,329.282,279.289,332.768,274.986,332.768z"/>
	<path style="fill:#1F544A;" d="M318.58,332.768c-4.303,0-7.79-3.487-7.79-7.79v-13.837c0-4.303,3.487-7.79,7.79-7.79
		s7.79,3.487,7.79,7.79v13.837C326.37,329.282,322.883,332.768,318.58,332.768z"/>
	<path style="fill:#1F544A;" d="M187.802,452.696c-4.302,0-7.79-3.487-7.79-7.79v-13.838c0-4.303,3.488-7.79,7.79-7.79
		s7.79,3.487,7.79,7.79v13.838C195.592,449.209,192.105,452.696,187.802,452.696z"/>
	<path style="fill:#1F544A;" d="M231.395,452.696c-4.302,0-7.79-3.487-7.79-7.79v-13.838c0-4.303,3.488-7.79,7.79-7.79
		c4.302,0,7.79,3.487,7.79,7.79v13.838C239.185,449.209,235.697,452.696,231.395,452.696z"/>
	<path style="fill:#1F544A;" d="M274.986,452.696c-4.303,0-7.79-3.487-7.79-7.79v-13.838c0-4.303,3.487-7.79,7.79-7.79
		c4.303,0,7.79,3.487,7.79,7.79v13.838C282.776,449.209,279.289,452.696,274.986,452.696z"/>
	<path style="fill:#1F544A;" d="M318.58,452.696c-4.303,0-7.79-3.487-7.79-7.79v-13.838c0-4.303,3.487-7.79,7.79-7.79
		s7.79,3.487,7.79,7.79v13.838C326.37,449.209,322.883,452.696,318.58,452.696z"/>
</g>
<g style="opacity:0.16;">
	<path style="fill:#664400;" d="M211.154,255.82c-4.141,0-7.591-3.292-7.78-7.471c-0.039-0.867-0.751-21.454,17.803-40.239
		c3.023-3.06,7.954-3.091,11.016-0.068c3.061,3.023,3.091,7.955,0.068,11.016c-13.567,13.736-13.337,28.05-13.32,28.653
		c0.195,4.299-3.133,7.906-7.43,8.101C211.39,255.817,211.271,255.82,211.154,255.82z"/>
</g>
<polygon style="opacity:0.5;fill:#1F544A;enable-background:new    ;" points="332.392,285.818 152.663,285.818 152.663,301.956 
	332.392,301.956 332.392,474.121 353.635,474.121 353.635,301.956 353.635,285.818 "/>
<rect x="187.807" y="386.788" style="opacity:0.27;fill:#664400;enable-background:new    ;" width="130.774" height="18.446"/>
<path style="fill:#56361D;" d="M385.523,477.289c0.504,1.698,0.786,3.489,0.786,5.345c0,10.401-8.51,18.911-18.911,18.911h-240.77
	c-3.811,0-7.363-1.151-10.341-3.111c2.321,7.818,9.58,13.567,18.125,13.567h240.771c10.401,0,18.911-8.509,18.911-18.911l0,0
	C394.094,486.499,390.671,480.677,385.523,477.289z"/>
<g>
</g>
<g>
</g>
<g>
</g>
<g>
</g>
<g>
</g>
<g>
</g>
<g>
</g>
<g>
</g>
<g>
</g>
<g>
</g>
<g>
</g>
<g>
</g>
<g>
</g>
<g>
</g>
<g>
</g>
</svg>
