<?xml version="1.0" encoding="iso-8859-1"?>
<!-- Generator: Adobe Illustrator 19.0.0, SVG Export Plug-In . SVG Version: 6.00 Build 0)  -->
<svg version="1.1" id="Layer_1" xmlns="http://www.w3.org/2000/svg" xmlns:xlink="http://www.w3.org/1999/xlink" x="0px" y="0px"
	 viewBox="0 0 512 512" style="enable-background:new 0 0 512 512;" xml:space="preserve">
<polyline style="fill:#D4E4AC;" points="9.467,215.581 9.467,184.023 503.871,184.023 503.871,215.581 "/>
<g>
	<polyline style="fill:#F2BF7E;" points="9.467,184.023 9.467,151.414 503.871,151.414 503.871,184.023 	"/>
	<rect x="9.227" y="215.644" style="fill:#F2BF7E;" width="494.887" height="207.534"/>
</g>
<rect x="33.173" y="239.586" style="fill:#D4E4AC;" width="446.993" height="159.64"/>
<circle style="fill:#E2804F;" cx="256.669" cy="319.406" r="79.82"/>
<circle style="fill:#FFFFFF;" cx="256.669" cy="319.406" r="55.878"/>
<g>
	<circle style="fill:#E2804F;" cx="73.088" cy="319.406" r="39.91"/>
	<circle style="fill:#E2804F;" cx="440.25" cy="319.406" r="39.91"/>
</g>
<path d="M512,431.065H1.338v-223.31h510.661v223.31H512z M17.117,415.286H496.22V223.533H17.117V415.286z"/>
<path d="M256.669,383.173c-35.159,0-63.763-28.604-63.763-63.763s28.604-63.763,63.763-63.763c35.159,0,63.763,28.604,63.763,63.763
	S291.828,383.173,256.669,383.173z M256.669,271.425c-26.459,0-47.984,21.526-47.984,47.984s21.525,47.984,47.984,47.984
	c26.459,0,47.984-21.525,47.984-47.984S283.128,271.425,256.669,271.425z"/>
<path d="M25.284,231.701v175.419h462.77V231.701L25.284,231.701L25.284,231.701z M41.063,391.34v-36.474
	c8.482,7.666,19.714,12.343,32.019,12.343c26.357,0,47.799-21.442,47.799-47.799s-21.443-47.799-47.799-47.799
	c-12.306,0-23.539,4.677-32.019,12.343v-36.474h165.506c-20.897,14.6-35.154,38.051-37.301,64.878h-39.882v15.779h40.01
	c2.593,26.13,16.71,48.907,37.173,63.204H41.063z M41.063,319.41c0-17.657,14.364-32.021,32.019-32.021
	c17.657,0,32.021,14.364,32.021,32.021S90.739,351.43,73.082,351.43C55.427,351.43,41.063,337.065,41.063,319.41z M256.669,247.479
	c39.663,0,71.93,32.268,71.93,71.93s-32.268,71.93-71.93,71.93s-71.93-32.268-71.93-71.93S217.006,247.479,256.669,247.479z
	 M306.769,391.34c20.463-14.297,34.58-37.074,37.173-63.204h40.01v-15.779H344.07c-2.147-26.827-16.404-50.279-37.301-64.878
	h165.506v36.474c-8.482-7.666-19.714-12.343-32.019-12.343c-26.357,0-47.799,21.442-47.799,47.799s21.443,47.799,47.799,47.799
	c12.306,0,23.539-4.677,32.019-12.343v36.474L306.769,391.34L306.769,391.34z M472.275,319.41c0,17.657-14.364,32.021-32.019,32.021
	c-17.657,0-32.021-14.364-32.021-32.021s14.364-32.021,32.021-32.021C457.911,287.389,472.275,301.753,472.275,319.41z"/>
<path style="fill:#E2804F;" d="M252.406,358.563v-9.283c-6.025-0.191-12.059-1.913-15.504-4.213l2.58-8.999
	c3.733,2.202,9.097,4.213,14.935,4.213c6.033,0,10.149-2.966,10.149-7.565c0-4.307-3.351-7.082-10.43-9.666
	c-10.055-3.641-16.565-8.236-16.565-17.137c0-8.231,5.745-14.549,15.411-16.275v-9.381h7.849v8.906
	c6.033,0.191,10.149,1.625,13.212,3.157l-2.588,8.808c-2.292-1.052-6.508-3.255-13.018-3.255c-6.704,0-9.097,3.445-9.097,6.7
	c0,3.925,3.453,6.126,11.583,9.381c10.725,4.023,15.512,9.191,15.512,17.71c0,8.138-5.651,15.317-16.174,17.04v9.861H252.406z"/>
<g>
	<rect x="65.219" y="312.358" style="fill:#FFFFFF;" width="15.779" height="15.779"/>
	<rect x="432.34" y="312.358" style="fill:#FFFFFF;" width="15.779" height="15.779"/>
</g>
<polygon points="511.234,199.802 495.455,199.802 495.455,192.439 15.779,192.439 15.779,199.802 0,199.802 0,176.66 
	511.234,176.66 "/>
<polyline style="fill:#D4E4AC;" points="9.467,151.414 9.467,119.856 503.871,119.856 503.871,151.414 "/>
<polyline style="fill:#F2BF7E;" points="9.467,119.856 9.467,88.298 503.871,88.298 503.871,119.856 "/>
<polygon points="511.234,168.244 495.455,168.244 495.455,160.881 15.779,160.881 15.779,168.244 0,168.244 0,145.102 
	511.234,145.102 "/>
<polygon points="511.234,135.635 495.455,135.635 495.455,129.323 15.779,129.323 15.779,135.635 0,135.635 0,113.544 
	511.234,113.544 "/>
<polygon points="511.234,104.077 495.455,104.077 495.455,96.714 15.779,96.714 15.779,104.077 0,104.077 0,80.935 511.234,80.935 
	"/>
<g>
</g>
<g>
</g>
<g>
</g>
<g>
</g>
<g>
</g>
<g>
</g>
<g>
</g>
<g>
</g>
<g>
</g>
<g>
</g>
<g>
</g>
<g>
</g>
<g>
</g>
<g>
</g>
<g>
</g>
</svg>
